<svg id="f349f0fd-7c22-4bc8-af4d-e1a47221572a" data-name="Layer 1" xmlns="http://www.w3.org/2000/svg" width="512" height="512" viewBox="0 0 512 512"><defs><style>.b035b907-c42f-4644-a698-91edc54dc5e2{fill:#d3d3d3;}.b9e82278-36d0-431e-a26b-66420a9da88f{fill:#21dd55;}.b9899943-becd-44ea-b8c7-5dffc1067c0a{fill:#22a9eb;}.f983df8a-08ba-4ccf-a7e7-c4f359c1104b{fill:#ff9902;}.e9857677-a423-46c8-8c9c-bbf313e2bbd4{fill:#ea3f24;}.b81f45b8-0510-4c09-a72a-a7441431e0e2{fill:#133568;}.eba77387-767e-4075-bc6e-3704b2b084ff{fill:#232323;}</style></defs><rect class="b035b907-c42f-4644-a698-91edc54dc5e2" x="38.21" y="221.26" width="141.82" height="111.81"/><rect class="b035b907-c42f-4644-a698-91edc54dc5e2" x="197.81" y="221.27" width="141.62" height="111.8"/><rect class="b9e82278-36d0-431e-a26b-66420a9da88f" x="38.21" y="156.46" width="301.22" height="47.01"/><rect class="b9899943-becd-44ea-b8c7-5dffc1067c0a" x="357.21" y="156.48" width="116.5" height="47.01"/><rect class="f983df8a-08ba-4ccf-a7e7-c4f359c1104b" x="357.21" y="221.27" width="116.5" height="47.01"/><rect class="e9857677-a423-46c8-8c9c-bbf313e2bbd4" x="357.21" y="286.06" width="116.5" height="47.01"/><rect class="b81f45b8-0510-4c09-a72a-a7441431e0e2" x="13.52" y="91.68" width="479.92" height="47.01"/><path class="eba77387-767e-4075-bc6e-3704b2b084ff" d="M481.34,439.56H30.66A30.7,30.7,0,0,1,0,408.89V103.11A30.7,30.7,0,0,1,30.66,72.44H481.34A30.7,30.7,0,0,1,512,103.11V408.89A30.7,30.7,0,0,1,481.34,439.56ZM30.66,92.88a10.24,10.24,0,0,0-10.22,10.23V408.89a10.24,10.24,0,0,0,10.22,10.23H481.34a10.24,10.24,0,0,0,10.22-10.23V103.11a10.24,10.24,0,0,0-10.22-10.23Z"/></svg>